<svg xmlns="http://www.w3.org/2000/svg" xml:space="preserve" style="shape-rendering:geometricPrecision;text-rendering:geometricPrecision;image-rendering:optimizeQuality;fill-rule:evenodd;clip-rule:evenodd" viewBox="0 0 356.33 356.33"><path d="M0 0h356.33v356.33H0z" style="fill:none"/><path d="M36.79 215.3a427.59 427.59 0 0 1 0-70.67c5.3-63.62 42.82-100.48 106.03-106.01 23.5-2.05 47.17-2.02 70.68 0 63.42 5.45 100.65 42.49 106.02 106.01 1.99 23.5 1.96 47.15 0 70.67-5.29 63.61-42.39 100.71-106.02 106a425.536 425.536 0 0 1-70.68 0c-63.63-5.29-100.73-42.39-106.03-106z" style="fill:#ff6d0c;fill-rule:nonzero"/><path d="M229.59 124.38c11.41-15.03 27.27-15.1 27.27-15.1s2.35 14.13-8.98 27.75c-12.1 14.53-25.85 12.15-25.85 12.15s-2.59-11.43 7.56-24.8zM99.27 201.54v49.04h35.32v-56.52c0-7.15 5.8-12.95 12.96-12.95 7.15 0 12.95 5.8 12.95 12.95v56.52h35.33v-56.52c0-7.15 5.8-12.95 12.95-12.95 7.15 0 12.95 5.8 12.95 12.95v56.52h35.33v-94.14h-35.33v13.12c.01-.01-8.58-15.54-30.41-15.54-12.68 0-22.42 7.22-27.67 7.22-6.11 0-15.24-6.78-27-6.78-18.09 0-37.38 16.2-37.38 47.08z" style="fill:#fff"/></svg>