<svg xmlns="http://www.w3.org/2000/svg" xml:space="preserve" style="shape-rendering:geometricPrecision;text-rendering:geometricPrecision;image-rendering:optimizeQuality;fill-rule:evenodd;clip-rule:evenodd" viewBox="0 0 41.12 18.3"><path d="M16.42 11.01V8.38h.47l.04.37h-.01c.09-.13.2-.24.34-.32.14-.07.29-.11.47-.11.13 0 .25.02.36.05.1.04.2.1.28.17.09.07.16.16.21.27a.88.88 0 0 1 .38-.36c.15-.09.32-.13.5-.13.21 0 .39.04.54.13.16.08.27.21.36.37.08.17.12.38.11.64l.01 1.55h-.52v-1.5c0-.25-.05-.43-.15-.56-.1-.12-.25-.18-.44-.18-.12 0-.23.03-.34.09-.1.07-.18.16-.23.29-.06.13-.09.28-.09.46v1.4h-.52v-1.5c0-.25-.05-.43-.15-.56a.537.537 0 0 0-.43-.18c-.13 0-.24.03-.34.1-.1.06-.18.16-.24.28-.06.13-.09.28-.09.46l.01 1.4h-.53zm4.47 0 .01-2.63h.51l.01 2.63h-.53zm.26-3.12a.401.401 0 0 1-.24-.1.331.331 0 0 1-.1-.24c0-.1.04-.17.1-.23.06-.06.15-.09.25-.09s.18.03.24.09c.07.06.1.13.1.23s-.03.18-.1.24c-.06.06-.15.09-.25.1zm1.01 3.12V7.36h1.38c.29 0 .54.05.73.15.2.1.34.24.44.41a1.177 1.177 0 0 1 0 1.15c-.09.17-.23.31-.42.42-.2.1-.44.16-.75.16h-.65v1.36h-.73zm.72-1.95h.61c.22 0 .38-.05.47-.15.1-.1.15-.24.15-.4 0-.18-.05-.31-.15-.41-.09-.1-.25-.15-.47-.15h-.6l-.01 1.11zm2.19 1.95V7.26h.73v1.51c.08-.14.2-.25.34-.33.15-.08.32-.12.51-.12.21 0 .4.05.54.14.15.09.27.22.35.4.08.17.12.39.11.65l.01 1.5h-.73V9.58c0-.21-.04-.37-.13-.48-.09-.11-.22-.17-.4-.17-.11 0-.22.03-.31.09-.09.05-.17.13-.22.23-.05.1-.07.22-.07.37v1.39h-.73zm4.2.06c-.26 0-.48-.06-.69-.17-.2-.12-.36-.28-.47-.49-.11-.21-.17-.45-.18-.71.01-.27.07-.51.18-.72.12-.21.28-.37.48-.49.2-.11.43-.17.68-.17.25 0 .48.06.68.17.21.12.36.28.48.49.11.21.17.44.18.72-.01.27-.07.51-.19.71-.12.21-.27.37-.47.49-.2.11-.43.17-.68.17zm-.01-.62a.75.75 0 0 0 .31-.09c.08-.06.15-.14.21-.25.06-.11.08-.25.08-.41 0-.17-.03-.31-.08-.42a.654.654 0 0 0-.21-.25.75.75 0 0 0-.3-.09.75.75 0 0 0-.3.09c-.09.06-.16.14-.21.25-.05.11-.08.25-.08.42 0 .16.02.3.08.41.05.11.12.19.21.25.09.05.18.08.29.09zm1.65.56V8.38h.64l.05.43c.08-.15.2-.26.34-.36.15-.09.33-.13.54-.13.21 0 .4.05.55.14.15.09.26.22.34.4.08.17.11.38.11.64v1.51h-.72V9.56c0-.2-.04-.35-.13-.46-.08-.11-.22-.17-.4-.17a.53.53 0 0 0-.3.09c-.09.05-.16.13-.21.22a.7.7 0 0 0-.08.37v1.4h-.73zm4.21.06c-.27 0-.5-.06-.7-.17-.21-.11-.37-.27-.48-.47a1.49 1.49 0 0 1-.17-.71c0-.27.05-.51.17-.72.11-.21.27-.38.47-.5.21-.12.44-.18.71-.18.26 0 .49.06.69.17.19.12.35.27.46.47.11.19.16.41.16.67v.11c0 .04-.01.09-.01.14h-2.13v-.45h1.4a.561.561 0 0 0-.17-.38.609.609 0 0 0-.4-.14c-.11 0-.22.03-.32.08a.62.62 0 0 0-.23.25c-.05.1-.08.24-.08.41v.15c0 .13.02.25.08.36.05.1.12.18.21.23.1.06.21.09.33.09.13 0 .23-.03.31-.08a.52.52 0 0 0 .19-.2h.74c-.05.16-.13.31-.24.44-.12.13-.26.24-.43.31-.17.08-.35.12-.56.12zm1.32-3.61v-.2h.7v.2h-.22v.71h-.26v-.71h-.22zm.84.71v-.91h.34l.23.6.25-.6h.32v.91h-.24v-.6l-.25.6h-.18l-.24-.61v.61h-.23z" style="fill:#1a1a1a;fill-rule:nonzero"/><path d="M2.76 10.51c-.08-.91-.08-1.82 0-2.72.2-2.45 1.64-3.87 4.08-4.08.9-.08 1.82-.08 2.72 0 2.44.21 3.88 1.63 4.08 4.08.08.9.08 1.81 0 2.72-.2 2.45-1.63 3.88-4.08 4.08-.9.08-1.82.08-2.72 0-2.45-.2-3.88-1.63-4.08-4.08z" style="fill:#ff6d0c;fill-rule:nonzero"/><path d="M10.18 7.01c.44-.58 1.05-.58 1.05-.58s.09.54-.34 1.07c-.47.56-1 .46-1 .46s-.1-.44.29-.95zM5.16 9.98v1.89h1.36V9.69c0-.27.23-.5.5-.5.28 0 .5.23.5.5v2.18h1.36V9.69c0-.27.22-.5.5-.5s.5.23.5.5v2.18h1.36V8.24H9.88v.51s-.33-.6-1.17-.6c-.49 0-.87.28-1.07.28-.23 0-.59-.26-1.04-.26-.7 0-1.44.62-1.44 1.81z" style="fill:#fff"/><path d="M0 0h41.12v18.3H0z" style="fill:none"/></svg>