<?xml version="1.0" encoding="UTF-8"?>
<!DOCTYPE svg PUBLIC "-//W3C//DTD SVG 1.1//EN" "http://www.w3.org/Graphics/SVG/1.1/DTD/svg11.dtd">
<!-- Creator: CorelDRAW -->
<svg xmlns="http://www.w3.org/2000/svg" xml:space="preserve" width="405px" height="180px" version="1.1" style="shape-rendering:geometricPrecision; text-rendering:geometricPrecision; image-rendering:optimizeQuality; fill-rule:evenodd; clip-rule:evenodd"
viewBox="0 0 41.12 18.3"
 xmlns:xlink="http://www.w3.org/1999/xlink"
 xmlns:xodm="http://www.corel.com/coreldraw/odm/2003">
 <defs>
  <style type="text/css">
   <![CDATA[
    .fil3 {fill:none}
    .fil2 {fill:white}
    .fil0 {fill:#1A1A1A;fill-rule:nonzero}
    .fil1 {fill:#FF6D0C;fill-rule:nonzero}
   ]]>
  </style>
 </defs>
 <g id="WEB">
  <metadata id="CorelCorpID_0Corel-Layer"/>
  <path class="fil0" d="M16.42 11.01l0 -2.63 0.47 0 0.04 0.37 -0.01 0c0.09,-0.13 0.2,-0.24 0.34,-0.32 0.14,-0.07 0.29,-0.11 0.47,-0.11 0.13,0 0.25,0.02 0.36,0.05 0.1,0.04 0.2,0.1 0.28,0.17 0.09,0.07 0.16,0.16 0.21,0.27l0 0c0.09,-0.16 0.22,-0.28 0.38,-0.36 0.15,-0.09 0.32,-0.13 0.5,-0.13 0.21,0 0.39,0.04 0.54,0.13 0.16,0.08 0.27,0.21 0.36,0.37 0.08,0.17 0.12,0.38 0.11,0.64l0.01 1.55 -0.52 0 0 -1.5c0,-0.25 -0.05,-0.43 -0.15,-0.56 -0.1,-0.12 -0.25,-0.18 -0.44,-0.18 -0.12,0 -0.23,0.03 -0.34,0.09 -0.1,0.07 -0.18,0.16 -0.23,0.29 -0.06,0.13 -0.09,0.28 -0.09,0.46l0 1.4 -0.52 0 0 -1.5c0,-0.25 -0.05,-0.43 -0.15,-0.56 -0.1,-0.12 -0.25,-0.18 -0.43,-0.18 -0.13,0 -0.24,0.03 -0.34,0.1 -0.1,0.06 -0.18,0.16 -0.24,0.28 -0.06,0.13 -0.09,0.28 -0.09,0.46l0.01 1.4 -0.53 0zm4.47 0l0.01 -2.63 0.51 0 0.01 2.63 -0.53 0zm0.26 -3.12c-0.09,-0.01 -0.18,-0.04 -0.24,-0.1 -0.06,-0.06 -0.1,-0.14 -0.1,-0.24 0,-0.1 0.04,-0.17 0.1,-0.23 0.06,-0.06 0.15,-0.09 0.25,-0.09 0.1,0 0.18,0.03 0.24,0.09 0.07,0.06 0.1,0.13 0.1,0.23 0,0.1 -0.03,0.18 -0.1,0.24 -0.06,0.06 -0.15,0.09 -0.25,0.1zm1.01 3.12l0 -3.65 1.38 0c0.29,0 0.54,0.05 0.73,0.15 0.2,0.1 0.34,0.24 0.44,0.41 0.1,0.18 0.15,0.37 0.15,0.59 -0.01,0.2 -0.05,0.39 -0.15,0.56 -0.09,0.17 -0.23,0.31 -0.42,0.42 -0.2,0.1 -0.44,0.16 -0.75,0.16l-0.65 0 0 1.36 -0.73 0zm0.72 -1.95l0.61 0c0.22,0 0.38,-0.05 0.47,-0.15 0.1,-0.1 0.15,-0.24 0.15,-0.4 0,-0.18 -0.05,-0.31 -0.15,-0.41 -0.09,-0.1 -0.25,-0.15 -0.47,-0.15l-0.6 0 -0.01 1.11zm2.19 1.95l0 -3.75 0.73 0 0 1.51 0 0c0.08,-0.14 0.2,-0.25 0.34,-0.33 0.15,-0.08 0.32,-0.12 0.51,-0.12 0.21,0 0.4,0.05 0.54,0.14 0.15,0.09 0.27,0.22 0.35,0.4 0.08,0.17 0.12,0.39 0.11,0.65l0.01 1.5 -0.73 0 0 -1.43c0,-0.21 -0.04,-0.37 -0.13,-0.48 -0.09,-0.11 -0.22,-0.17 -0.4,-0.17 -0.11,0 -0.22,0.03 -0.31,0.09 -0.09,0.05 -0.17,0.13 -0.22,0.23 -0.05,0.1 -0.07,0.22 -0.07,0.37l0 1.39 -0.73 0zm4.2 0.06c-0.26,0 -0.48,-0.06 -0.69,-0.17 -0.2,-0.12 -0.36,-0.28 -0.47,-0.49 -0.11,-0.21 -0.17,-0.45 -0.18,-0.71 0.01,-0.27 0.07,-0.51 0.18,-0.72 0.12,-0.21 0.28,-0.37 0.48,-0.49 0.2,-0.11 0.43,-0.17 0.68,-0.17 0.25,0 0.48,0.06 0.68,0.17 0.21,0.12 0.36,0.28 0.48,0.49 0.11,0.21 0.17,0.44 0.18,0.72 -0.01,0.27 -0.07,0.51 -0.19,0.71 -0.12,0.21 -0.27,0.37 -0.47,0.49 -0.2,0.11 -0.43,0.17 -0.68,0.17zm-0.01 -0.62c0.12,-0.01 0.22,-0.04 0.31,-0.09 0.08,-0.06 0.15,-0.14 0.21,-0.25 0.06,-0.11 0.08,-0.25 0.08,-0.41 0,-0.17 -0.03,-0.31 -0.08,-0.42 -0.05,-0.11 -0.13,-0.19 -0.21,-0.25 -0.09,-0.05 -0.19,-0.08 -0.3,-0.09 -0.11,0.01 -0.21,0.04 -0.3,0.09 -0.09,0.06 -0.16,0.14 -0.21,0.25 -0.05,0.11 -0.08,0.25 -0.08,0.42 0,0.16 0.02,0.3 0.08,0.41 0.05,0.11 0.12,0.19 0.21,0.25 0.09,0.05 0.18,0.08 0.29,0.09zm1.65 0.56l0 -2.63 0.64 0 0.05 0.43 0 0c0.08,-0.15 0.2,-0.26 0.34,-0.36 0.15,-0.09 0.33,-0.13 0.54,-0.13 0.21,0 0.4,0.05 0.55,0.14 0.15,0.09 0.26,0.22 0.34,0.4 0.08,0.17 0.11,0.38 0.11,0.64l0 1.51 -0.72 0 0 -1.45c0,-0.2 -0.04,-0.35 -0.13,-0.46 -0.08,-0.11 -0.22,-0.17 -0.4,-0.17 -0.11,0 -0.21,0.03 -0.3,0.09 -0.09,0.05 -0.16,0.13 -0.21,0.22 -0.06,0.1 -0.08,0.22 -0.08,0.37l0 1.4 -0.73 0zm4.21 0.06c-0.27,0 -0.5,-0.06 -0.7,-0.17 -0.21,-0.11 -0.37,-0.27 -0.48,-0.47 -0.11,-0.21 -0.17,-0.44 -0.17,-0.71 0,-0.27 0.05,-0.51 0.17,-0.72 0.11,-0.21 0.27,-0.38 0.47,-0.5 0.21,-0.12 0.44,-0.18 0.71,-0.18 0.26,0 0.49,0.06 0.69,0.17 0.19,0.12 0.35,0.27 0.46,0.47 0.11,0.19 0.16,0.41 0.16,0.67 0,0.03 0,0.07 0,0.11 0,0.04 -0.01,0.09 -0.01,0.14l-2.13 0 0 -0.45 1.4 0c-0.01,-0.16 -0.07,-0.28 -0.17,-0.38 -0.11,-0.09 -0.24,-0.14 -0.4,-0.14 -0.11,0 -0.22,0.03 -0.32,0.08 -0.1,0.06 -0.17,0.14 -0.23,0.25 -0.05,0.1 -0.08,0.24 -0.08,0.41l0 0.15c0,0.13 0.02,0.25 0.08,0.36 0.05,0.1 0.12,0.18 0.21,0.23 0.1,0.06 0.21,0.09 0.33,0.09 0.13,0 0.23,-0.03 0.31,-0.08 0.08,-0.05 0.15,-0.12 0.19,-0.2l0.74 0c-0.05,0.16 -0.13,0.31 -0.24,0.44 -0.12,0.13 -0.26,0.24 -0.43,0.31 -0.17,0.08 -0.35,0.12 -0.56,0.12zm1.32 -3.61l0 -0.2 0.7 0 0 0.2 -0.22 0 0 0.71 -0.26 0 0 -0.71 -0.22 0zm0.84 0.71l0 -0.91 0.34 0 0.23 0.6 0.25 -0.6 0.32 0 0 0.91 -0.24 0 0 -0.6 -0.25 0.6 -0.18 0 -0.24 -0.61 0 0.61 -0.23 0z"/>
  <g id="_2395455241024">
   <path class="fil1" d="M2.76 10.51c-0.08,-0.91 -0.08,-1.82 0,-2.72 0.2,-2.45 1.64,-3.87 4.08,-4.08 0.9,-0.08 1.82,-0.08 2.72,0 2.44,0.21 3.88,1.63 4.08,4.08 0.08,0.9 0.08,1.81 0,2.72 -0.2,2.45 -1.63,3.88 -4.08,4.08 -0.9,0.08 -1.82,0.08 -2.72,0 -2.45,-0.2 -3.88,-1.63 -4.08,-4.08z"/>
   <path class="fil2" d="M10.18 7.01c0.44,-0.58 1.05,-0.58 1.05,-0.58 0,0 0.09,0.54 -0.34,1.07 -0.47,0.56 -1,0.46 -1,0.46 0,0 -0.1,-0.44 0.29,-0.95zm-5.02 2.97l0 1.89 1.36 0 0 -2.18c0,-0.27 0.23,-0.5 0.5,-0.5 0.28,0 0.5,0.23 0.5,0.5l0 2.18 1.36 0 0 -2.18c0,-0.27 0.22,-0.5 0.5,-0.5 0.28,0 0.5,0.23 0.5,0.5l0 2.18 1.36 0 0 -3.63 -1.36 0 0 0.51c0,0 -0.33,-0.6 -1.17,-0.6 -0.49,0 -0.87,0.28 -1.07,0.28 -0.23,0 -0.59,-0.26 -1.04,-0.26 -0.7,0 -1.44,0.62 -1.44,1.81z"/>
  </g>
  <rect class="fil3" width="41.12" height="18.3"/>
 </g>
</svg>
