<svg xmlns="http://www.w3.org/2000/svg" viewBox="0 -0.01 164.78 95.2"><g fill="#0971ce"><path d="m120.636 69.129 12.157-50.498h-26.097L95.575 63.92c-1.615 8.827-11.102 12.96-17.837 13.065H59.244L52.969 95.19h38.86c9.586 0 23.745-4.906 28.807-26.062"/><path d="M65.857 51.321 78.124-.009h26.856L91.02 58.377C88.335 69.651 79.953 72.36 72.213 72.36H10.305c-6.821 0-12.536-2.9-9.44-15.918l5.574-23.29c2.826-11.81 11.61-14.51 17.962-14.51H67.61l-3.48 14.553H42.07c-3.244 0-5.023.703-5.93 4.491l-3.557 14.867c-1.274 5.336.59 5.707 4.503 5.707h20.21c3.702 0 6.955-.235 8.561-6.939M138.69 18.634l-12.642 53.73h26.094l12.638-53.73h-26.09z"/></g></svg>