<svg xmlns="http://www.w3.org/2000/svg" xml:space="preserve" style="shape-rendering:geometricPrecision;text-rendering:geometricPrecision;image-rendering:optimizeQuality;fill-rule:evenodd;clip-rule:evenodd" viewBox="0 0 72.87 22.3"><defs><style>.fil0,.fil1{fill:#000;fill-rule:nonzero}.fil1{fill:#109dd9}</style></defs><g id="Capa_x0020_1"><path d="M26.46 8.41h-3.87c-1.8 0-2.65-.28-2.65-.94V4.44c0-.57.85-.94 2.65-.94h3.87c1.8 0 2.65.28 2.65.94v3.03c0 .66-.85.94-2.65.94zm0 1.42c3.22 0 4.82-.85 4.82-2.46V4.54c0-1.7-1.6-2.46-4.82-2.46h-3.87c-3.22 0-4.82.85-4.82 2.46v2.83c0 1.7 1.6 2.46 4.82 2.46h3.87zM68.05 8.41h-3.88c-1.79 0-2.65-.28-2.65-.94V4.44c0-.57.86-.94 2.65-.94h3.88c1.79 0 2.64.28 2.64.94v3.03c0 .66-.85.94-2.64.94zm0 1.42c3.21 0 4.82-.85 4.82-2.46V4.54c0-1.7-1.61-2.46-4.82-2.46h-3.88c-3.21 0-4.82.85-4.82 2.46v2.83c0 1.7 1.61 2.46 4.82 2.46h3.88zM15.59 7.37V5.39c0-.38-.28-.57-.85-.57h-4.72c-.47 0-.76.38-.76.76 0 .37.38.75.76.75h3.21v1.04c0 .29-.38.66-1.13.76-.57.19-1.04.19-1.51.19h-5.2c-2.08 0-3.12-.38-3.12-1.04V2.46c0-.66 1.23-.95 3.68-.95h1.42c.57 0 .85-.28.85-.75.1-.48-.19-.76-.75-.76H5.39C4.16 0 3.02.09 1.98.47.76.85 0 1.51 0 2.46v4.91c0 .95.66 1.61 1.89 1.99.95.28 2.08.47 3.5.47h5.19c1.23 0 2.37-.19 3.22-.47 1.13-.48 1.79-1.14 1.79-1.99zM47.07 3.87c0 .76-1.04 1.04-3.03 1.04h-8.13V1.42h8.13c1.99 0 3.03.19 3.03 1.04v1.41zm.28-3.49C46.4.19 45.36 0 44.04 0h-9.73a.65.65 0 0 0-.67.66v8.6c0 .47.29.66.86.66h.66c.56 0 .85-.19.85-.66V6.33h8.13c1.41 0 2.45-.19 3.4-.47 1.23-.47 1.89-1.13 1.89-2.17V2.17c-.1-.75-.76-1.32-2.08-1.79zM56.99 2.08c-1.99 0-2.84 0-4.07.47-1.13.47-1.6 1.23-1.6 1.99v4.72c0 .38.28.66.75.66h.67c.47 0 .75-.19.75-.66V4.54c0-.67.85-.95 2.55-.95h.95c.57 0 .85-.28.85-.75-.1-.48-.38-.76-.85-.76z" class="fil0"/><path d="M0 12.29h15.78v10.02H0zM19 12.29h15.78v10.02H19z" class="fil1"/><path d="M37.99 12.29h15.78v10.02H37.99z" style="fill:#075daa;fill-rule:nonzero"/><path d="M56.99 12.29h15.78v10.02H56.99z" style="fill:#e8e8ea;fill-rule:nonzero"/></g></svg>