<svg xmlns="http://www.w3.org/2000/svg" viewBox="-7.859 -7.859 1402.845 277.681"><path d="M9.13 0a9.097 9.097 0 0 0-6.454 2.674A9.104 9.104 0 0 0 0 9.129v238.305a9.104 9.104 0 0 0 2.676 6.455 9.1 9.1 0 0 0 6.455 2.674h39.562a9.095 9.095 0 0 0 6.453-2.674 9.102 9.102 0 0 0 2.674-6.455V9.129a9.1 9.1 0 0 0-2.79-6.57A9.1 9.1 0 0 0 48.692 0ZM1300.81.146c-21.327.272-44.519 6.444-59.723 17.225-12.643 8.881-25.604 23.474-25.24 60.77.198 20.39.198 85.548 0 105.826-.362 37.296 12.6 51.89 25.242 60.771 15.204 10.782 39.682 16.953 61.07 17.225 21.327-.272 44.518-6.443 59.723-17.225 12.641-8.881 25.602-23.475 25.238-60.771-.194-20.295-.198-85.454 0-105.826.362-37.296-12.6-51.889-25.242-60.77C1346.673 6.59 1322.195.418 1300.81.146zM892.844.164c-35.811.254-60.887 9.851-71.643 16.197-2.68 1.687-4.23 4.527-4.072 7.764l1.826 26.85c.324 5.712 6.187 9.387 11.537 7.156 12.612-5.204 34.194-12.793 54.748-12.969 9.896-.092 24.164.43 31.365 3.545 8.15 3.316 13.216 10.409 13.143 17.83.11 8.184.123 6.851.072 11.988-.112 11.227-4.133 13.853-7.781 17.051-5.183 4.516-14.71 5.754-26.14 6.973-7.24.88-24.758 1.848-39.796 2.08-4.568.145-8.22 3.724-8.265 8.29l-.457 27.02c-.045 4.567 3.531 8.408 8.289 8.456 13.13.129 31.013.686 44.32 2.15 18.059 2.083 33.612 7.185 33.463 22.219l-.154 15.603c-.22 22.263-19.66 25.306-48.584 25.02-18.839-.187-40.45-8.585-53.143-14.42-5.305-2.336-11.432 1.218-11.869 6.924l-2.377 28.713c-.22 3.042 1.272 6.102 3.728 7.84 9.266 5.99 33.494 19.17 67.745 19.51 24.548.243 55.428-4.969 71.72-16.606 5.75-4.13 23.036-20.135 23.278-44.49l.177-17.887.168-16.938c.12-12.178-6.132-34.125-27.756-41.38-5.31-1.766-8.346-2.748-10.82-2.772 6.11-2.224 12.043-5.4 20.11-12.932 7.877-7.534 11.803-19.485 11.95-34.517.106-10.656.04-3.805.124-12.368.213-21.502-9.116-40.244-27.854-50.707C935.134 3.22 914.8.353 896.342.17a207.44 207.44 0 0 0-3.498-.006zm205.85.447c-11.695-.018-27.438.861-43.346 7.412-15.67 6.506-40.571 22.815-40.867 52.69l-.743 74.973-.527 53.09c-.145 14.651 6.052 42.307 22.672 55.033 21.343 16.386 41.119 17.915 60.908 18.111 21.503.213 36.35-.02 54.524-9.545 23.146-12.14 32.896-35.832 33.718-61.324.74-16.93.241-24.358-.572-38.258-.63-13.137 1.462-32.149-24.064-48.768-10.967-7.15-36.036-12.345-53.731-12.71-19.788-.387-43.455 6.61-43.455 6.61s.134-13.7.645-26.827c.786-21.687 32.424-26.512 48.6-26.352 16.364.163 34.777 4.913 45.782 8.258 5.122 1.572 10.296-1.992 10.729-7.316l2.166-26.622c.225-3.613-1.832-7.06-5.244-8.425-16.112-6.44-35.873-9.68-56.994-9.889-2.855-.028-6.303-.135-10.202-.14zM502.128 15.084c-4.757-.048-8.793 3.91-8.89 13.613l.816 182.393c-.075 7.612-1.77 24.913 11.058 36.267 12.83 11.355 30.676 15.154 48.744 14.543 14.291-.484 23.977-1.754 32.928-4.865 4.055-1.41 7.277-4.496 7.13-8.875l-1.046-28.935c-.328-5.332-5.276-10.246-10.193-8.475-15.368 5.532-25.31 5.531-31.656-.402-2.072-2.114-2.99-5.548-2.909-13.73l1.067-87.682 31.968.318a8.934 8.934 0 0 0 9.032-8.856l.482-29.302c.047-4.758-3.721-8.79-8.668-8.84l-32.744-.317-.029-37.628c.047-4.758-3.91-8.794-8.668-8.84zm799.351 29.592c8.977.153 21.788 2.69 27.464 8.006 6.305 5.962 6.814 11.485 6.603 32.988-.107 11.137-.11 79.502 0 90.768.21 21.502-.295 27.027-6.604 32.99-5.673 5.316-18.484 7.852-27.459 8.006-8.974-.154-21.786-2.69-27.462-8.006-6.306-5.963-6.815-11.488-6.604-32.99.108-11.266.108-79.63 0-90.768-.21-21.503.296-27.026 6.604-32.988 5.673-5.316 18.484-7.853 27.459-8.006zM381.09 53.76c-14.082-.14-30.271 1.222-44.977 6.406-23.488 8.14-30.31 24.438-31.976 38.885-.832 7.224-1.44 10.834-1.532 20.158-.154 15.604 2.955 28.194 11.627 36.463 8.671 8.459 27.827 15.12 57.092 19.406 26.035 3.684 32.092 6.789 36.627 10.069 6.235 4.629 5.51 20.227 1.287 23.8-6.908 5.831-22.905 7.006-42.3 5.48-19.396-1.523-39.891-7.627-52.03-11.743-5.498-1.958-11.244 1.79-11.681 7.496l-2.184 28.334c-.224 3.424 1.457 6.676 4.486 8.228 15.332 8.335 48.951 14.948 75.4 15.211 29.114.288 52.006-5.385 64.673-16.107 14.392-12.036 16.257-27.242 16.453-47.032.148-15.033.522-33.49-9.082-43.671-9.423-9.418-19.448-15.607-45.297-18.909-24.328-3.096-46.933-7.314-53.176-10.992-6.243-3.868-5.354-16.8-1.502-21.33 5.581-6.415 30.305-4.838 44.563-3.174 18.057 2.083 32.293 5.838 41.209 8.782 5.31 1.765 10.675-1.798 11.3-7.311l3.317-27.37c.42-3.991-1.826-7.821-5.62-9.19-19.72-7.237-34.519-11.57-66.677-11.89zm321.738.023c-27.683.175-53.967 3.736-69.92 11.25-3.06 1.492-4.994 4.709-4.838 8.137l1.242 28.178c.324 5.712 5.996 9.573 11.342 7.722 13.944-5.19 38.37-11.988 61.588-12.138 15.606-.036 23.584 1.564 29.072 4.664 5.49 3.098 7.739 6.547 7.659 14.539-.065 6.66-.174 17.508-.174 17.508s-27.002-2.172-40.139-1.541c-17.899.965-34.855 2.89-53.598 12.22-15.49 7.65-27.97 18.753-28.207 42.729-.106 10.846-.138 13.891-.252 25.308-.165 16.746 9.979 30.166 23.99 37.346 15.338 7.765 32.615 11.933 64.583 12.25 43.765.433 71.158-17.565 79.98-24.52 2.11-1.5 3.274-3.962 3.301-6.626l1.145-115.504c.044-23.598-7.98-39.662-24.452-48.2-16.47-8.726-35.457-13.1-56.77-13.312a346.256 346.256 0 0 0-5.552-.01zm-519.59 1.256c-13.419.042-28.277 1.194-37.336 3.67-28.358 7.75-42.988 17.084-48.365 21.978-1.73 1.696-2.893 3.969-2.918 6.442l-.04 159.861a9.127 9.127 0 0 0 9.126 9.13h37.315a9.128 9.128 0 0 0 9.128-9.13s-.093-122.638-.093-127.342c0-13.7 16.541-17.55 34.05-17.55 13.34 0 30.079 3.844 30.079 18.185 0 4.83-.07 126.854-.07 126.854 0 5.041 4.088 9.127 9.128 9.127h37.57a9.126 9.126 0 0 0 9.128-9.127s.189-125.497.189-133.393c0-21.533-5.21-28.26-16.44-38.105-12.306-10.79-30.038-15.324-45.156-18.784-5.29-1.21-14.857-1.849-25.295-1.816zm912.971 83.549a57.125 57.125 0 0 1 3.328.043c10.461.484 22.26.6 29.41 8.664 7.155 7.873 7.657 14.73 7.51 29.572-.132 13.32-.403 21.31-6.955 29.617-6.363 8.311-20.842 10.07-31.879 9.961-11.227-.11-22.057-1.74-29.201-10.566-7.337-8.636-5.904-18.898-5.768-32.598.167-16.936.272-27.402.272-27.402s16.628-7.028 33.283-7.291zm-381.836 33.21c14.582.06 24.6 1.999 24.6 1.999l-.088 8.754c-.171 17.125.745 20.751-8.643 27.129-9.388 6.377-23.48 7.379-34.518 7.459-11.229.08-24.333-2.715-29.228-8.092-2.881-3.07-2.606-5.926-2.539-12.586.096-9.704 4.357-17.083 14.289-20.791 9.935-3.897 24.207-3.756 33.152-3.858 1.011-.013 2.003-.017 2.975-.013z" style="fill:#000;fill-opacity:1;fill-rule:nonzero;stroke:none;stroke-width:1.33333325"/></svg>