<svg xmlns="http://www.w3.org/2000/svg" xml:space="preserve" style="shape-rendering:geometricPrecision;text-rendering:geometricPrecision;image-rendering:optimizeQuality;fill-rule:evenodd;clip-rule:evenodd" viewBox="0 0 1682.8 434.76"><defs><style>.fil0{fill:#000}</style></defs><g id="Capa_x0020_1"><path d="M1305.58 210.73c-11.83-30.22-40.42-53.54-70.97-61.09-83.76-22.32-189.85-13.45-247.66 56.5-33.51 43.02-53.19 107.75-28.24 162.29 12.16 31.83 45.99 54.82 77.85 60.74 70.29 9.2 160.94 13.15 217.44-38.43 52.87-44.02 70.62-117.59 51.58-180v-.01zm-173.42 129.43c-7.91 2.96-20.71 4.28-27.94-1.32-16.75-9.19-11.16-29.9-9.2-43.7 7.88-25.62 16.76-61.74 48.62-66.69 10.46-.99 23.64 3.63 27.92 15.79 2.95 37.11-7.71 74.86-39.4 95.92zM370.15 0l-59.1 171.49L266.09 0H146.65L0 418.66h139.56L195.15 259l41.39 159.66h126.52L509.71 0H370.15zm231.41 124.89c24.67-3.6 50.59-11.48 64.06-35.79 9.87-19.39 6.27-42.71-5.57-59.78-19.03-20.03-45.34-22-73.25-20.36-25.63 3.61-51.58 16.41-60.74 43.03-4.28 16.72-3.31 37.11 7.88 50.58 16.4 20.04 43.02 22.99 67.65 22.35l-.03-.03zm-101.63 28.06L406.5 419.04h132.45l93.43-266.09H499.93z" class="fil0"/><path d="M1012.22 152.57H858.49l-76.89 89.88L865.57 0H730.76L584.11 418.65l134.81.01 37.85-105.27 21.29 105.26 140.73.01-23.66-127.73 117.09-138.36zm605.38-3.17c-59.11 0-98.15 26.01-118.24 43.76l15.34-40.21h-139.53l-93.43 266.09h139.53l44.96-127.73c7.09-20.09 18.89-29.58 39.02-29.58 20.12 0 24.83 20.12 18.92 36.67l-42.56 120.64h134.81l60.31-172.69c16.55-47.3 0-96.95-59.13-96.95z" class="fil0"/></g></svg>