<svg xmlns="http://www.w3.org/2000/svg" xml:space="preserve" style="shape-rendering:geometricPrecision;text-rendering:geometricPrecision;image-rendering:optimizeQuality;fill-rule:evenodd;clip-rule:evenodd" viewBox="0 0 310.21 76.42"><defs><style>.fil0{fill:#cc2131}</style></defs><g id="Capa_x0020_1"><g id="_1868319795360"><path d="M40.57 76.42C16.25 76.41 0 59.18 0 38.28 0 17.38 16.29-.05 40.54 0h229.13c24.25-.05 40.54 17.38 40.54 38.28 0 20.9-16.25 38.13-40.58 38.14H40.57z" class="fil0"/><path d="M40.65 9.4C21.4 9.44 9.57 22.31 9.57 38.23c0 15.92 11.75 28.89 31.08 28.82h228.91c19.33.07 31.08-12.9 31.08-28.82S288.82 9.44 269.56 9.4H40.65z" style="fill:#fff"/><path d="M30.78 20.16h11.2l15.51 25.08-.01-25.08H68.6v35.98H57.5L41.91 31.05v25.09H30.77l.01-35.98zm98.29 3.7h10.82v4.84h5.86v3.56h-5.86l.01 23.88h-10.83V32.26h-5.88v-3.55h5.89l-.01-4.85zm-54.28 8.35h10.82v23.93H74.79V32.21zm-.02-12.06h10.84v7.36H74.77v-7.36zm193.95 23.83s-.01 3.61-.01 5.07c0 3.81-2.25 5.39-4.42 5.39-2.16 0-4.43-1.58-4.43-5.39 0-1.46.01-5.16.01-5.16s.01-3.53.01-4.99c0-3.8 2.25-5.36 4.41-5.36s4.42 1.56 4.42 5.36c0 1.46 0 4.13.01 5.1v-.02zm-4.35-13.4c-8.72 0-15.8 6.01-15.8 13.44 0 7.41 7.08 13.43 15.8 13.43 8.74 0 15.82-6.02 15.82-13.43 0-7.43-7.08-13.44-15.82-13.44zm-30-10.42h10.67v35.97h-10.69l-.01-1.38c-4.13 2.6-8.81 2.59-12.45.9-.98-.46-7.4-3.54-7.4-11.86 0-6.32 5.96-13.21 13.75-12.53 2.57.23 4.39 1.17 6.13 2.14V20.16zm.08 23.89v-4.27c0-3.7-2.56-4.64-4.24-4.64-1.73 0-4.25.94-4.25 4.64 0 1.22.01 4.26.01 4.26s-.01 2.98-.01 4.26c0 3.69 2.52 4.66 4.25 4.66 1.68 0 4.24-.97 4.24-4.66v-4.25zM110.94 31.11c4.04-.11 12.25 2.53 12.19 12.01-.01 1.68 0 13.01 0 13.01h-10.75V40.42c0-2.09-1.99-4.41-4.94-4.41s-5.14 2.32-5.14 4.41l.02 15.71H91.57l-.01-23.92 10.75-.01s-.01 1.93 0 2.52a13.02 13.02 0 0 1 8.63-3.61zm87.92 0c4.04-.11 12.25 2.53 12.2 12.01-.02 1.68-.01 13.01-.01 13.01H200.3V40.42c0-2.09-1.99-4.41-4.94-4.41s-5.14 2.32-5.14 4.41l.01 15.71h-10.74l.01-23.92 10.73-.01s-.01 1.93 0 2.52a13.02 13.02 0 0 1 8.63-3.61zm-43.03 9.44c-.02-2.09.03-3.49.71-4.7.85-1.47 2.41-2.17 3.81-2.18 1.41.01 2.96.71 3.8 2.18.69 1.21.73 2.61.71 4.7h-9.03zm8.99 7.22s.01.1.01 1.45c0 4.38-2.88 5.35-4.48 5.35-1.6 0-4.53-.97-4.53-5.35 0-1.31.02-4.94.02-4.94s20.37.01 20.37 0c0-7.42-7.16-13.57-15.96-13.57-8.79 0-15.93 6.02-15.93 13.43 0 7.42 7.14 13.44 15.93 13.44 7.3 0 13.47-4.17 15.36-9.82l-10.79.01zm116.12-19.05h-1.25v-8.19h3.13c1.93 0 2.89.71 2.89 2.32 0 1.47-.92 2.11-2.13 2.26l2.33 3.61h-1.38l-2.17-3.55h-1.42v3.55zm1.48-4.61c1.06 0 1.99-.07 1.99-1.33 0-1.01-.92-1.2-1.78-1.2h-1.69v2.53h1.48z" class="fil0"/><path d="M275.22 24.6c0-4.07 3.31-7.08 7.22-7.08 3.87 0 7.17 3.01 7.17 7.08 0 4.12-3.3 7.12-7.17 7.12-3.91 0-7.22-3-7.22-7.12zm7.22 5.94c3.21 0 5.75-2.52 5.75-5.94 0-3.36-2.53-5.9-5.75-5.9-3.25 0-5.78 2.54-5.78 5.9 0 3.42 2.53 5.94 5.78 5.94z" class="fil0"/></g></g></svg>