<svg xmlns="http://www.w3.org/2000/svg" viewBox="0 0 47.075 18.796"><g aria-label="Pixel" style="font-style:normal;font-variant:normal;font-weight:400;font-stretch:normal;font-size:25.4px;line-height:1.25;font-family:&quot;Product Sans&quot;;-inkscape-font-specification:&quot;Product Sans&quot;;fill:#888;fill-opacity:1;stroke-width:.581963"><path d="M-5.76 105.58v7.365h-2.336V94.76H-1.9q2.362 0 4.013 1.575 1.677 1.574 1.677 3.835 0 2.311-1.677 3.86-1.625 1.55-4.013 1.55zm0-8.586v6.35h3.912q1.397 0 2.311-.94.94-.94.94-2.235 0-1.27-.94-2.21-.914-.965-2.311-.965zM8.857 96.207q0 .685-.483 1.168-.482.483-1.168.483-.686 0-1.169-.483-.482-.483-.482-1.168 0-.686.482-1.169.483-.482 1.169-.482t1.168.482q.483.483.483 1.169zm-.483 4.292v12.446H6.037V100.5zM17.358 106.62l4.445 6.325H19.06l-3.073-4.597-3.023 4.597h-2.743l4.394-6.324-4.292-6.122h2.641l3.074 4.394 2.92-4.394h2.744zM28.637 113.352q-2.743 0-4.521-1.88t-1.778-4.75q0-2.845 1.727-4.724 1.727-1.905 4.42-1.905 2.768 0 4.394 1.803 1.65 1.778 1.65 5.004l-.025.254h-9.779q.05 1.829 1.22 2.946 1.168 1.118 2.793 1.118 2.236 0 3.506-2.235l2.082 1.016q-.838 1.575-2.336 2.464-1.474.889-3.353.889zm-3.734-8.128h7.137q-.101-1.296-1.066-2.134-.94-.864-2.54-.864-1.321 0-2.286.813-.94.813-1.245 2.185zM38.978 94.759v18.186h-2.336V94.76Z" style="font-style:normal;font-variant:normal;font-weight:400;font-stretch:normal;font-size:25.4px;font-family:&quot;Product Sans&quot;;-inkscape-font-specification:&quot;Product Sans&quot;;fill:#888;fill-opacity:1;stroke-width:.581963" transform="translate(8.096 -94.556)"/></g></svg>