<svg xmlns="http://www.w3.org/2000/svg" xml:space="preserve" style="shape-rendering:geometricPrecision;text-rendering:geometricPrecision;image-rendering:optimizeQuality;fill-rule:evenodd;clip-rule:evenodd" viewBox="0 0 262.98 61.87"><defs><style>.fil0{fill:#333;fill-rule:nonzero}</style></defs><g id="Capa_x0020_1"><path d="M0 55.17V43.13h.34C7.86 52.16 15.55 57.68 24 57.68c7.44 0 13.04-3.84 13.04-10.45 0-4.34-2.93-7.52-10.12-10.53l-13.79-5.85C6.69 28.09.92 23.58.92 15.88.92 8.19 9.03 0 22.07 0c7.52 0 13.55 2.35 19.98 5.93v11.45h-.33c-7.19-8.35-12.88-13.2-21.24-13.2-7.36 0-11.54 4.85-11.54 9.36 0 3.92 1.83 7.02 8.2 9.61l14.05 5.77c9.69 4.02 14.21 8.44 14.21 15.63 0 10.45-9.95 17.31-21.82 17.31-8.52 0-15.8-1.83-23.58-6.69zM54.34 2.01v-.34h12.7v.34c-1.42 3.42-2.09 7.1-2.09 11.28v35.29c0 4.18.67 7.86 2.09 11.28v.34h-12.7v-.34c1.41-3.42 2.09-7.1 2.09-11.28V13.29c0-4.18-.68-7.86-2.09-11.28zM75.49 30.93C75.49 13.79 89.28 0 106.26 0c8.44 0 15.38 3.01 20.82 6.43v11.96h-.34c-6.61-7.6-12.2-14.21-21.99-14.21-11.29 0-19.48 11.03-19.48 25.25s8.44 28.26 23.32 28.26c4.52 0 7.69-1.41 11.29-4.26V43.9c0-4.18-.68-7.86-2.09-11.29v-.33h12.7v.33c-1.42 3.43-2.09 7.11-2.09 11.29v12.2c-6.11 3.26-13.97 5.77-21.73 5.77-17.9 0-31.19-13.79-31.19-30.93l.01-.01zM164.27 53.17l-17.32-42.96v38.37c0 4.18.68 7.86 2.09 11.28v.34h-9.37v-.34c1.42-3.42 2.09-7.1 2.09-11.28V13.29c0-4.18-.67-7.86-2.09-11.28v-.34h12.96c.16 1.09.58 2.25 1 3.35l17.73 44.47L188.5 5.02c.41-1.1.83-2.26.99-3.35h12.62v.34c-1.41 3.42-2.09 7.1-2.09 11.28v35.29c0 4.18.68 7.86 2.09 11.28v.34h-12.53v-.34c1.41-3.42 2.09-7.1 2.09-11.28V10.03L175.2 53.17c-.92 2.35-1.75 4.77-2.25 7.03h-6.27c-.58-2.25-1.51-4.68-2.43-7.03h.02zM214.17 47.23l14.71-38.29c1.33-3.43.25-5.51-.76-6.94v-.34h11.37c.16 1.17.92 3.51 1.93 6.01l15.12 39.55c2.18 5.61 4.35 9.87 6.44 12.62v.34h-14.05v-.34c1.17-4.26 1.09-6.69-1.17-12.54l-1.93-5.1h-24.66l-1.93 5.1c-2.25 5.85-2.35 8.28-1.17 12.54v.34H207.7v-.34c2.09-2.76 4.26-7.02 6.43-12.62l.04.01zm30.01-9.19-10.71-27.85-10.61 27.85h21.32z" class="fil0"/></g></svg>