<svg xmlns="http://www.w3.org/2000/svg" viewBox="35.5 43.9 1007.2 154.8"><path fill="#005ca9" d="m223.7 47.2-42.9 148.3h32.9l9.1-31.4h62.8l9.1 31.4h32.9L284.7 47.2zm7.8 86.9 16.2-56h13l16.2 56zm-196-56H89v117.4h32V78.1h53.6V47.2H35.5zm642.6 65.6c6.6-4 11-9.4 13.5-16.8 1.9-5.5 2.8-11.3 2.8-27.9s-1-22.5-2.8-27.9C686.1 55 671 47.2 645.7 47.2h-78.5v148.3h32v-44.7h45.2l22.5 44.7h35.3l-25.6-50.8zm-18.2-30.5c-4 6.2-11 6.7-19 6.7h-41.7V78.1h41.7c8 0 15 .5 19 6.7 1.9 2.9 2.5 6.2 2.5 14.2-.1 8-.6 11.3-2.5 14.2zm350.8-66V148L955.8 47.2h-39.6v148.3h32V94.7l54.9 100.8h39.6V47.2zM440 133.1l-28.9-85.9h-50v148.3h32V80.1l30 89.2h33.6l30-89.2v115.4h32V47.2h-50zm363.2-89.2c-27.8 0-53.7 2.3-64.5 29.4-3.8 9.5-4.4 19.8-4.4 48s.6 38.5 4.4 48c10.8 27.2 36.7 29.4 64.5 29.4s53.7-2.3 64.5-29.4c3.8-9.5 4.4-19.8 4.4-48s-.6-38.5-4.4-48c-10.8-27.2-36.7-29.4-64.5-29.4zm35.2 108.2c-4.4 14-20.2 15.9-35.2 15.9s-30.8-1.9-35.2-15.9c-1.6-5.3-1.6-15.9-1.6-30.7s0-25.5 1.6-30.7c4.4-14 20.2-15.9 35.2-15.9s30.8 1.9 35.2 15.9c1.6 5.3 1.6 15.9 1.6 30.7 0 14.7 0 25.5-1.6 30.7z"/></svg>