<svg xmlns="http://www.w3.org/2000/svg" viewBox="0 0 1811.92 1844.19" fill="currentColor"><path d="M794.03 1711.48h-74.06c-113.15 0-193.36-80.21-193.36-193.36v-135.77c0-20.93 37.73-8.57 87.05-69.29 30.17-37.16 44.6-74.12 44.6-128.19H263.3c0 54.47 13.17 86.34 44.24 124.44 29.25 35.86 46.74 43.29 87.42 64.81 0 127.37-19.53 222.32 50.96 327.54 28.13 41.99 53.09 66.02 95.42 93.82 91.46 60.06 175.47 47.65 285.6 47.65 88.13 0 182.9-60.18 232.78-129.26 75.61-104.72 59.32-187.18 59.32-306.84 0-120.67-3.42-246.25-.14-366.29 3.89-141.93 146.86-221.13 253.94-167.26 133.77 67.3 108.25 184.29 108.25 344.3 0 19.36-22.2 6.98-71.67 39.42-49.89 32.73-78.77 64.5-103.92 118.24-32.23 68.85-21.89 158.65-21.89 245.53 0 25.69 31.91 57.6 57.6 57.6h41.14v131.65H1514v-131.65h65.83v131.65h131.65v-131.65h41.14c25.69 0 57.6-31.91 57.6-57.6 0-145.61 18.04-206.69-63.43-310.96-48.18-61.66-104.15-69.65-134.05-84 0-65.82-.34-131.73.05-197.53.97-162.31-149.93-304.39-292.15-304.39-71.91 0-115.53 4.3-179.35 42.81-81.53 49.19-131.86 122.8-150.98 219.29-10.82 54.59 4.05 454-3.11 548.19-7.77 102.29-82.52 177.1-193.17 177.1z"/><path d="M197.48 580.09V493.7h131.65c0 136.5-12.51 131.65 65.83 131.65V460.78h131.65v230.39c78.34 0 65.82 4.86 65.82-131.65h131.66v86.4c0 123.88-79.69 176.91-197.48 176.91v98.74H394.96V757c-117.8 0-197.48-53.02-197.48-176.91zM0 460.78v460.79c0 103.73 93.75 197.47 197.48 197.47h526.61c103.73 0 197.48-93.74 197.48-197.47V460.78c0-103.73-93.75-197.48-197.48-197.48H197.48C93.75 263.3 0 357.05 0 460.78zM164.57 57.6v139.88H757V57.6C757 31.91 725.09 0 699.4 0H222.16c-25.69 0-57.59 31.91-57.59 57.6z"/></svg>