<svg xmlns="http://www.w3.org/2000/svg" viewBox="0 0 1262.07 902.19" fill="currentColor"><path d="M842.99 434.18c0-74.55 118.41-74.55 118.41 0 0 81.3-118.41 81.35-118.41 0zM225.55 270.66h90.22v-90.22h90.22v90.22h90.22v90.22h-90.22v90.22h-90.22v-90.22h-90.22v-90.22zm795.05 104.31c-74.54 0-74.54-118.41 0-118.41 81.3 0 81.36 118.41 0 118.41zm-298.85-59.2c0-28.47 23.2-59.21 62.03-59.21 74.55 0 74.55 118.41 0 118.41-38.64 0-62.03-30.56-62.03-59.2zm121.24-118.42c0-81.29 118.41-81.35 118.41 0 0 74.55-118.41 74.55-118.41 0zM0 721.75c0 95.88 83.08 180.44 169.16 180.44 51.47 0 87.61-8.26 124.79-41.55 6.78-6.08 12.04-8.57 17.88-15.96 6.3-7.97 10.28-12.56 15.83-20.82 18.59-27.7 79.41-149.38 99-188.57l24.44-48.87h360.87c2.86 12.28 116.02 226.26 122.32 235.75 27.38 41.23 81.27 80.02 137.06 80.02 60.22 0 100.6-13.76 140.33-54.21 57.49-58.54 54.41-118.5 45.23-193.38-8.33-68-40.54-321.9-55.5-370.22-17.2-55.56-37.65-94.22-73.65-140.62-19.15-24.68-31.25-34.83-52.93-54.2C1024.23 44.34 930.55 0 842.99 0H420.08c-88.75 0-177.67 43.43-230.34 88.24-3.88 3.3-4.98 5.01-8.64 8.28-5.27 4.69-5.86 4.25-11.11 8.63l-33.48 37c-22.99 29.22-38.95 53.65-54.8 88.99-17.37 38.73-24.92 65.21-32.17 108.79C39.45 400.6 0 676.01 0 721.75z"/></svg>