<svg xmlns="http://www.w3.org/2000/svg" viewBox="0 0 1600 400" fill="currentColor"><path d="M1200 187.5v25c0 94.37 93.13 187.5 187.5 187.5h25c94.37 0 187.5-93.13 187.5-187.5v-25C1600 93.13 1506.87 0 1412.5 0h-25C1293.13 0 1200 93.13 1200 187.5zM0 187.5v25C0 306.87 93.13 400 187.5 400h25c94.37 0 187.5-93.13 187.5-187.5v-25C400 93.13 306.87 0 212.5 0h-25C93.13 0 0 93.13 0 187.5zM600 187.5v25c0 94.37 93.13 187.5 187.5 187.5h25c94.37 0 187.5-93.13 187.5-187.5v-25C1000 93.13 906.87 0 812.5 0h-25C693.13 0 600 93.13 600 187.5z"/></svg>