<svg xmlns="http://www.w3.org/2000/svg" viewBox="0 0 1917.8 1549.65" fill="currentColor"><path d="M757.7 590.75c0-122.24 84.51-209.76 184.08-209.76 67.9 0 118.02 9.25 165.96 60.92 115.13 124.09 28.97 341.48-131.72 341.48-66.41 0-115.92-9.04-163.9-58.71-26.93-27.88-54.42-80.43-54.42-133.93zM0 29.96c0 58.36 52.74 42.81 154.11 42.81v175.52c-60.98 14.2-98.46 68.94-98.46 145.54v410.96c0 20.6 11.74 47.09 29.97 47.09h179.79c35.98 0 25.36-34.25 47.09-34.25h295.37c14.03 0 23.11 27.64 36.07 49.55 28.61 48.37 62.75 130.25 135.17 130.25h351.02c28.4 0 46.87-9.01 65.17-20.45 22.8-14.24 28.84-25.42 42.1-47.8 21.53-36.34 43.79-73.43 63.96-111.55h316.78c2.33 8.72 1.62 5.3 5.41 11.72 8.4 14.19 16.08 22.53 33.12 22.53h175.51c18.23 0 29.97-26.49 29.97-47.09V393.83c0-76.6-37.48-131.34-98.46-145.54V72.77c96.79 0 154.11 15.37 154.11-42.81 0-13.63-21.81-29.96-38.53-29.96H1583.9c-64.67 0-56.33 72.77-8.57 72.77h115.59v175.52c-41.96 9.77-86.21 54.15-89.9 98.45h-299.66c-19.57-36.99-69.74-135.82-103.43-157.69-18.53-12.03-38.27-22.1-67.8-22.1H787.67c-52.24 0-84.33 29.52-107.27 68.25-21.53 36.34-43.8 73.43-63.96 111.54H316.78c-2.18-26.17-17.17-46.69-31.12-63.05-11.72-13.75-39.35-30.88-58.78-35.4 0-59.44-2.02-114.02 0-175.52h115.58C388.54 72.77 399 0 333.9 0H38.53C20.87 0 0 14.39 0 29.96z"/><path d="M286.81 1262.84v235.44c0 33.24 13.16 51.37 47.09 51.37h132.71c62.09 0 47.09-65.52 47.09-132.71 0-61.39.23-122.78-.11-184.17-.29-54.44 21.12-86.34 58.92-125.16l42.66-47.24c9.36-11.13 11.21-14.56 21.62-25.46 8.42-8.82 14.82-16.37 18.17-28.92-16.48-24.62-70.46-99.47-77.05-124.15H449.48c-32.46 48.48-87.77 112.65-113.84 155.85-37.78 62.61-48.83 127.55-48.83 225.15zM1262.84 1005.99c6.06 22.72 25.72 34.65 38.52 51.36l61.26 71.45c25.73 30.52 41.69 48.32 41.63 99.64l-.1 274.08c2.3 30.92 13.27 47.13 47.04 47.13h132.71c33.92 0 47.08-18.13 47.08-51.37v-235.44c0-96.79-11.38-160.54-47.22-222.47-22.29-38.52-84.85-112.83-115.45-158.53h-128.42c-7.31 31.36-58.45 96.37-77.05 124.15zM821.91 582.19c0 71.44 59.12 136.98 141.27 136.98 70.39 0 132.7-66.2 132.7-136.98 0-72.04-58.9-136.99-141.26-136.99-70.81 0-132.71 65.81-132.71 136.99z"/></svg>