<svg xmlns="http://www.w3.org/2000/svg" xml:space="preserve" viewBox="0 0 1352.85 1014.64"><g><g><path d="M927.45 615.65c-69.58 0-64.18-97.76-2.65-97.76 14.54 0 25.88 6.26 33.84 13.73 35.03 32.87 6.3 84.03-31.19 84.03zM435.98 483.54v462.4c0 37.42 23.16 68.7 55.49 68.7h528.46c30.43 0 54.19-28.44 55.56-58.05 1.71-36.93-.08-78.84-.08-116.34 6.04 4.04 14.14 11.23 20.53 16.46l40.92 33.06c7.2 6.45 13.48 10.3 20.83 16.17 55.31 44.17 49.18 50.57 126.46 50.57 38.44 0 68.7-23 68.7-55.49V531.1c0-17.69-11.39-33.16-22.14-41.27-28.83-21.76-101.14-18.14-128.91 1.2-7.66 5.33-13.75 10.87-20.7 16.29l-105.69 84.55c0-69.22 19.87-174.39-60.77-174.39H494.11c-33.25 0-58.13 30.06-58.13 66.06z" fill="currentColor"/><path d="M174.39 118.9c-60.04 0-121.85-12.62-155.18 27.14C11.53 155.19 0 174.63 0 190.25v454.47c0 34.05 37.29 71.34 71.34 71.34h288.01V591.87c-57.8-4.81-116.7-58.12-141.84-111.82-23.46-50.13-22.6-118.94 1.74-168.32 18.88-38.32 52.34-72.31 90.71-91.6 76.42-38.42 184.63-18.17 232.89 42.92 17.03 21.56 36.3 43.23 43.74 75.16h208.74V190.25c0-29.8-25.55-57.46-53.97-67.58-24.29-8.65-88.53-3.77-120.42-3.77-2.99-12.82-27.51-58.58-35.21-73.13C574.85 25.22 550.17 0 520.53 0H280.08c-32.78 0-56.58 20.15-67.86 43.11-12.75 25.96-24.73 51.04-37.83 75.79z" fill="currentColor"/><path d="M277.44 396.34c0 31.36 10.67 54.73 24.5 73.27 10.78 14.47 36.15 38.58 57.41 40.35 0-30.15-.89-47.29 5.2-71.42 13.95-55.19 70.54-100.33 137.49-100.33-13.07-19.51-19.89-28.48-40.09-41.82-78.85-52.03-184.51 9.22-184.51 99.95z" fill="currentColor"/></g></g></svg>