<svg xmlns="http://www.w3.org/2000/svg" xml:space="preserve" viewBox="0 0 1358.77 1117.89"><g><g><path d="M0 546.29v388.69c0 95.39 87.52 182.91 195.98 182.91h192.71c115.33 0 150.99-67.9 213.12-129.83 25.67-25.59 35.28-40.01 80.84-40.01 94.5 0 117.35 169.84 287.43 169.84h192.71c108.46 0 195.98-87.52 195.98-182.91V546.29c0-90.38-89.21-179.64-179.65-179.64H179.65C89.35 366.65 0 455.77 0 546.29zM215.57 262.13h117.59c8.49-31.79 64.47-84.64 94.67-104.57 35.67-23.52 91.37-48.95 150.3-48.95h202.51c84.47 0 151.89 42.68 203.37 93.86 10.96 10.9 37.63 44.78 41.6 59.66h117.58c-3.86-8.06-7.68-18.12-11.62-27.57-24.95-59.97-76.75-118.01-127.86-156.31C881.09-13.61 756.2.83 600.99.83c-142.48 0-250.12 60.1-327.07 156.33-13.1 16.37-37.32 54.22-45.76 75.09-3.36 8.28-8.49 21.33-12.59 29.88z" fill="currentColor"/></g></g></svg>