<svg xmlns="http://www.w3.org/2000/svg" fill="none" viewBox="0 0.5 154 32"><rect width="32" height="32" y=".5" fill="url(#a)" rx="9.102"/><path fill="#fff" fill-rule="evenodd" d="M16.012 25.858c-4.452 0-8.33-3.161-9.222-7.517l1.041-.213c.79 3.863 4.231 6.667 8.181 6.667 3.95 0 7.39-2.804 8.181-6.667l1.041.213c-.89 4.356-4.77 7.517-9.222 7.517ZM16.012 7.087c-4.452 0-8.33 3.161-9.222 7.517l1.041.213c.79-3.863 4.231-6.667 8.181-6.667 3.95 0 7.39 2.804 8.181 6.667l1.041-.213c-.89-4.356-4.77-7.517-9.222-7.517Z" clip-rule="evenodd"/><path fill="#031B4E" fill-rule="evenodd" d="M7.13 15.692a.78.78 0 1 0 .002 1.561.78.78 0 0 0-.003-1.561Zm0 2.817a2.038 2.038 0 0 1-2.036-2.037c0-1.122.913-2.036 2.036-2.036a2.04 2.04 0 0 1 2.037 2.037 2.04 2.04 0 0 1-2.037 2.036ZM24.894 15.691a.78.78 0 1 0 .002 1.562.78.78 0 0 0-.002-1.562Zm0 2.818a2.039 2.039 0 0 1-2.036-2.037c0-1.123.914-2.037 2.036-2.037a2.04 2.04 0 0 1 2.038 2.037 2.04 2.04 0 0 1-2.038 2.037Z" clip-rule="evenodd"/><path fill="#0C1E44" d="M137.175 7.61v7.88h10.016v2.064h-10.016v9.996h-2.216V5.546h12.507v2.065h-10.291ZM151.364 11.308h2.09V27.55h-2.09V11.308ZM154 6.576c-.001.31-.095.614-.27.872a1.584 1.584 0 0 1-.714.577 1.61 1.61 0 0 1-1.732-.342 1.558 1.558 0 0 1 .238-2.417 1.605 1.605 0 0 1 2.011.195c.299.296.467.697.467 1.115ZM54.678 19.53h7.495c-.3 1.402-1.477 3.017-2.99 4.081-1.32.932-2.86 1.324-4.716 1.202-1.73-.117-3.233-.706-4.468-1.75-2.64-2.245-3.42-6.01-1.944-9.368 1.311-3.01 4.527-4.807 7.975-4.447 2.825.287 4.701 1.582 5.736 3.957l.046.108h3.546l-.068-.225a8.92 8.92 0 0 0-.539-1.398c-.873-1.873-2.271-3.325-4.154-4.318-3.135-1.647-6.444-1.799-9.836-.45-2.585 1.047-4.498 2.872-5.678 5.42a10.983 10.983 0 0 0-.925 6.61c.539 3.205 2.22 5.7 4.995 7.418C50.901 27.457 52.838 28 54.94 28a12.82 12.82 0 0 0 1.801-.124c2.206-.301 4.015-1.31 5.382-2.998.165-.201.317-.416.479-.642l.03-.042v3.356h2.877V16.523H54.678v3.007ZM127.074 12.647c-2.028 0-3.743.71-5.23 2.165v-1.816h-3.16V27.55h3.16v-8.93c0-.218.044-.322.081-.371.91-1.183 1.962-1.927 3.217-2.278.412-.112.831-.19 1.275-.272.231-.042.462-.085.694-.133l.141-.029v-2.89h-.178ZM109.1 12.743c-2.118-.38-4.121.055-5.948 1.28-.005-1.25 0-5.773.003-8.3v-.177h-3.207V27.55h3.207v-1.037c1.449.975 3.003 1.39 4.484 1.389 2.138 0 4.125-.864 5.421-2.152 2.475-2.47 2.995-6.407 1.231-9.362-1.2-2.024-2.946-3.25-5.191-3.645Zm-1.668 12.324a4.92 4.92 0 0 1-2.709-.812 4.83 4.83 0 0 1-1.796-2.162 4.766 4.766 0 0 1-.277-2.784 4.8 4.8 0 0 1 1.335-2.467 4.895 4.895 0 0 1 2.497-1.318 4.93 4.93 0 0 1 2.817.274 4.866 4.866 0 0 1 2.189 1.775c.536.792.822 1.723.822 2.676a4.79 4.79 0 0 1-1.43 3.406 4.91 4.91 0 0 1-3.448 1.412ZM92.384 13.143c-.008.28-.01.549-.01.835-3.707-2.438-7.887-1.403-10.005.87-2.495 2.666-2.865 6.748-.88 9.703 1.02 1.517 2.367 2.534 4.008 3.016.767.23 1.564.349 2.365.353 1.567 0 3.08-.479 4.517-1.43v1.06h3.16V12.996h-3.15l-.005.147ZM88 25.067a4.919 4.919 0 0 1-2.71-.812 4.83 4.83 0 0 1-1.795-2.162 4.763 4.763 0 0 1-.277-2.784 4.8 4.8 0 0 1 1.334-2.466 4.894 4.894 0 0 1 2.497-1.319 4.931 4.931 0 0 1 2.818.274 4.865 4.865 0 0 1 2.188 1.774c.536.793.822 1.724.823 2.677a4.795 4.795 0 0 1-1.43 3.406A4.913 4.913 0 0 1 88 25.067ZM78.415 12.647c-2.027 0-3.743.71-5.23 2.165v-1.816h-3.16V27.55h3.16v-8.93c0-.218.045-.322.08-.371.912-1.183 1.963-1.927 3.218-2.278.412-.112.831-.19 1.275-.272.231-.042.462-.085.694-.133l.141-.029v-2.89h-.178Z"/><defs><linearGradient id="a" x1="16" x2="16" y1=".5" y2="32.5" gradientUnits="userSpaceOnUse"><stop stop-color="#19B9E1"/><stop offset="1" stop-color="#477CF5"/></linearGradient></defs></svg>