<svg xmlns="http://www.w3.org/2000/svg" fill="none" viewBox="5.22 4.81 161.5 36.33"><g fill="#000" clip-path="url(#a)"><path d="M98.275 14.769h-3.81c-.372 0-.58.25-.622.623l-.125 1.908c-1.533-1.743-3.603-2.987-6.17-2.987-5.674 0-9.815 4.73-9.815 10.665 0 5.935 4.141 10.666 9.815 10.666 2.65 0 4.68-1.204 6.128-2.905l.165 1.744c.042.373.248.622.622.622h3.81c.373 0 .622-.25.622-.622V15.392c0-.373-.25-.623-.621-.623h.001ZM88.212 30.662c-3.024 0-5.22-2.449-5.22-5.726s2.196-5.643 5.22-5.643c3.024 0 5.176 2.574 5.176 5.643 0 3.07-2.195 5.726-5.176 5.726ZM103.243 4.81h4.223c.344 0 .622.278.622.622v29.047a.622.622 0 0 1-.622.623h-4.223a.623.623 0 0 1-.622-.623V5.432c0-.344.279-.623.622-.623ZM112.868 4.81h4.225c.343 0 .621.278.621.622v29.047a.622.622 0 0 1-.621.623h-4.225a.622.622 0 0 1-.622-.623V5.432c0-.344.278-.623.622-.623ZM132.815 14.311c-2.403 0-4.39 1.079-5.881 2.657V5.432c0-.373-.25-.623-.622-.623h-4.225c-.372 0-.622.25-.622.623v29.047c0 .373.248.623.622.623h3.811c.372 0 .579-.25.621-.623l.165-1.743c1.451 1.7 3.479 2.904 6.131 2.904 5.673 0 9.816-4.73 9.816-10.666 0-5.935-4.143-10.665-9.816-10.665v.002Zm-.662 16.35c-2.982 0-5.177-2.655-5.177-5.725s2.195-5.643 5.177-5.643c2.981 0 5.219 2.407 5.219 5.643 0 3.237-2.195 5.726-5.219 5.726ZM148.55 4.851a3.017 3.017 0 0 0-3.024 3.03 3.017 3.017 0 0 0 3.024 3.028c1.698 0 2.982-1.368 2.982-3.029 0-1.66-1.326-3.029-2.982-3.029ZM146.438 14.769h4.223c.343 0 .622.278.622.623V34.48a.623.623 0 0 1-.622.622h-4.225a.622.622 0 0 1-.622-.622V15.39c0-.344.278-.622.622-.622h.002ZM166.093 14.769h-2.899V9.166c0-.373-.247-.623-.622-.623h-4.225c-.372 0-.621.25-.621.623v5.603h-2.899c-.373 0-.622.25-.622.623v3.236c0 .373.249.623.622.623h2.899v15.23c0 .372.247.622.621.622h4.225c.373 0 .622-.25.622-.622V19.249h2.899c.373 0 .622-.25.622-.623V15.39c0-.373-.248-.623-.622-.623v.002ZM76.54 14.553h-4.11a.573.573 0 0 0-.56.446l-3.352 14.432-3.56-14.44a.575.575 0 0 0-.558-.438h-4.841a.575.575 0 0 0-.558.437l-3.63 14.484-3.36-14.475a.573.573 0 0 0-.56-.446h-4.404a.572.572 0 0 0-.46.231.572.572 0 0 0-.093.507l5.768 19.641c.071.244.3.413.553.413h5.004a.575.575 0 0 0 .556-.43l3.454-13.256 3.454 13.256c.065.254.295.43.556.43h4.968a.58.58 0 0 0 .552-.415l5.732-19.64a.57.57 0 0 0-.093-.508.572.572 0 0 0-.46-.23l.002.001Z"/></g><path fill="#0D99FF" d="M20.424 6.539 5.219 15.216v5.538l15.09-8.735 3.237 1.77-10.754 5.652 5.262 2.911 10.06-5.765v-5.652l-7.69-4.396Z"/><path fill="#0D99FF" d="M35.572 32.456V15.101l-4.857-2.74-.057 17.298-3.007 1.827.405-11.989-5.146 3.026v11.532l4.973 2.797 7.689-4.395Z"/><path fill="#0D99FF" d="m5.219 32.457 15.205 8.678 4.857-2.798-15.148-8.734-.116-3.483 10.291 6.394-.058-5.937-10.06-5.766-4.971 2.854v8.792Z"/><defs><clipPath id="a"><path fill="#000" d="M46.471 4.81h120.244v30.83H46.471z"/></clipPath></defs></svg>