<svg xmlns="http://www.w3.org/2000/svg" fill="none" viewBox="36 57 439.2 99.95"><path fill="#163300" d="M280.616 58.494h27.063l-13.615 97.126h-27.062l13.614-97.126Zm-34.118 0-18.263 55.951-7.97-55.95h-18.927l-23.908 55.784-2.988-55.785h-26.233l9.132 97.126h21.75l26.896-61.43 9.464 61.43h21.417l35.364-97.126h-25.734Zm227.208 56.449h-64.253c.332 12.619 7.887 20.92 19.01 20.92 8.385 0 15.026-4.483 20.173-13.033l21.691 9.862c-7.454 14.685-23.161 24.256-42.528 24.256-26.398 0-43.914-17.765-43.914-46.321 0-31.38 20.587-53.627 49.642-53.627 25.568 0 41.673 17.267 41.673 44.163 0 4.483-.498 8.966-1.494 13.78Zm-24.074-18.595c0-11.29-6.309-18.429-16.437-18.429-10.127 0-19.093 7.472-21.417 18.43h37.854ZM63.627 87.765 36 120.049h49.327l5.545-15.225H69.737L82.654 89.89l.041-.398-8.4-14.453h37.779L82.787 155.62h20.039l35.364-97.126H46.825l16.794 29.27h.008Zm288.049-9.846c9.546 0 17.914 5.13 25.219 13.93l3.836-27.378C373.923 59.864 364.709 57 352.506 57c-24.24 0-37.854 14.195-37.854 32.21 0 12.493 6.973 20.13 18.429 25.069l5.479 2.491c10.21 4.358 12.95 6.516 12.95 11.124 0 4.607-4.607 7.803-11.622 7.803-11.581.041-20.961-5.894-28.017-16.022l-3.91 27.901c8.036 6.127 18.338 9.372 31.927 9.372 23.036 0 37.19-13.282 37.19-31.711 0-12.535-5.562-20.587-19.591-26.896l-5.977-2.823c-8.302-3.694-11.124-5.728-11.124-9.795 0-4.4 3.86-7.804 11.29-7.804Z"/></svg>